<svg id="svg" version="1.1" xmlns="http://www.w3.org/2000/svg" xmlns:xlink="http://www.w3.org/1999/xlink" width="400" height="400" viewBox="0, 0, 400,400"><g id="svgg"><path id="path0" d="M139.855 181.800 C 139.711 182.177,139.099 182.400,138.213 182.400 C 137.436 182.400,136.800 182.580,136.800 182.800 C 136.800 183.020,136.547 183.200,136.237 183.200 C 135.349 183.200,132.000 187.167,132.000 188.220 C 132.000 188.733,131.820 189.264,131.600 189.400 C 131.380 189.536,131.200 190.717,131.200 192.024 C 131.200 193.704,131.048 194.400,130.681 194.400 C 130.291 194.400,130.204 195.056,130.330 197.031 C 130.433 198.662,130.327 199.833,130.049 200.111 C 129.802 200.358,129.600 201.700,129.600 203.093 C 129.600 204.797,129.431 205.690,129.082 205.824 C 128.705 205.968,128.609 206.744,128.731 208.657 C 128.848 210.485,128.746 211.386,128.400 211.600 C 127.742 212.007,127.844 220.522,128.522 221.741 C 129.294 223.128,130.907 224.800,131.475 224.800 C 131.764 224.800,132.000 224.980,132.000 225.200 C 132.000 225.420,132.525 225.600,133.167 225.600 C 133.808 225.600,134.393 225.762,134.467 225.961 C 134.688 226.560,151.470 226.690,152.062 226.098 C 152.336 225.824,153.199 225.598,153.980 225.595 C 157.297 225.582,157.519 225.242,156.946 221.056 L 156.691 219.200 147.946 219.200 C 142.382 219.200,139.200 219.054,139.200 218.800 C 139.200 218.580,138.863 218.400,138.450 218.400 C 137.685 218.400,136.818 215.927,137.503 215.699 C 137.681 215.640,137.755 214.335,137.668 212.800 C 137.542 210.580,137.633 209.962,138.113 209.778 C 138.563 209.605,138.663 209.147,138.507 207.981 L 138.297 206.416 147.043 206.308 C 155.434 206.204,155.795 206.167,155.929 205.400 C 156.005 204.960,156.295 204.420,156.574 204.200 C 156.919 203.927,157.004 203.224,156.840 202.000 L 156.600 200.200 147.900 200.092 C 139.623 199.990,139.200 199.947,139.200 199.216 C 139.200 198.793,139.380 198.336,139.600 198.200 C 139.820 198.064,140.000 196.793,140.000 195.376 C 140.000 193.502,140.145 192.800,140.531 192.800 C 140.888 192.800,141.006 192.423,140.892 191.647 C 140.636 189.901,141.040 189.834,151.068 189.942 L 160.356 190.042 160.622 188.621 C 160.769 187.839,161.096 187.200,161.349 187.200 C 161.667 187.200,161.746 186.486,161.605 184.900 L 161.400 182.600 156.918 182.400 C 154.113 182.275,152.250 182.013,151.938 181.700 C 151.149 180.908,140.163 180.999,139.855 181.800 M283.480 185.454 C 283.326 185.607,283.200 186.773,283.200 188.043 C 283.200 189.313,283.020 190.464,282.800 190.600 C 282.580 190.736,282.400 191.640,282.400 192.610 C 282.400 194.794,281.777 195.200,278.426 195.200 L 276.000 195.200 276.000 198.000 L 276.000 200.800 278.576 200.800 C 281.103 200.800,282.118 201.231,281.108 201.875 C 280.783 202.083,280.600 203.134,280.600 204.800 C 280.600 206.312,280.433 207.372,280.200 207.332 C 279.955 207.291,279.851 208.336,279.933 210.032 C 280.035 212.169,279.941 212.800,279.520 212.800 C 279.097 212.800,279.009 213.415,279.128 215.530 C 279.248 217.652,279.139 218.403,278.641 218.902 C 277.839 219.704,277.826 220.247,278.600 220.545 C 278.951 220.679,279.200 221.279,279.200 221.987 C 279.200 222.654,279.337 223.200,279.505 223.200 C 279.673 223.200,279.988 223.605,280.205 224.100 C 280.422 224.595,281.005 225.178,281.500 225.395 C 281.995 225.612,282.400 225.927,282.400 226.095 C 282.400 226.263,283.126 226.400,284.013 226.400 C 285.077 226.400,285.703 226.604,285.855 227.000 C 285.995 227.364,286.600 227.600,287.394 227.600 C 288.113 227.600,288.926 227.330,289.200 227.000 C 289.533 226.599,290.431 226.400,291.905 226.400 C 294.812 226.400,295.171 225.902,295.187 221.855 L 295.200 218.709 291.700 218.855 L 288.200 219.000 288.080 216.236 C 288.000 214.379,288.121 213.373,288.448 213.170 C 288.769 212.972,288.903 211.967,288.840 210.232 C 288.769 208.276,288.889 207.541,289.304 207.382 C 289.722 207.221,289.817 206.609,289.680 204.954 C 289.360 201.100,289.734 200.800,294.868 200.800 L 299.200 200.800 299.200 198.849 C 299.200 197.596,299.416 196.718,299.805 196.396 C 301.126 195.300,299.732 194.800,295.351 194.800 L 291.200 194.800 291.200 192.787 C 291.200 191.546,291.392 190.701,291.700 190.583 C 292.057 190.446,292.143 189.677,292.000 187.896 L 291.800 185.400 287.780 185.287 C 285.569 185.225,283.634 185.300,283.480 185.454 M216.484 193.815 C 216.140 194.205,215.174 194.400,213.584 194.400 C 212.261 194.400,211.200 194.578,211.200 194.800 C 211.200 195.020,210.660 195.200,210.000 195.200 C 209.340 195.200,208.800 195.380,208.800 195.600 C 208.800 195.820,208.552 196.000,208.249 196.000 C 207.236 196.000,203.200 200.320,203.200 201.405 C 203.200 201.732,203.020 202.000,202.800 202.000 C 202.580 202.000,202.400 202.439,202.400 202.976 C 202.400 203.513,202.220 204.064,202.000 204.200 C 201.780 204.336,201.600 205.162,201.600 206.036 C 201.600 206.939,201.384 207.708,201.100 207.816 C 200.493 208.048,200.613 218.400,201.222 218.400 C 201.430 218.400,201.600 218.940,201.600 219.600 C 201.600 220.260,201.780 220.800,202.000 220.800 C 202.220 220.800,202.400 221.033,202.400 221.319 C 202.400 221.967,205.262 224.800,205.917 224.800 C 206.183 224.800,206.400 224.980,206.400 225.200 C 206.400 225.420,206.839 225.600,207.376 225.600 C 207.913 225.600,208.464 225.780,208.600 226.000 C 208.736 226.220,209.832 226.400,211.036 226.400 C 212.613 226.400,213.290 226.568,213.455 227.000 C 213.617 227.422,214.275 227.600,215.671 227.600 C 216.903 227.600,217.885 227.372,218.257 227.000 C 218.682 226.575,219.718 226.400,221.805 226.400 C 223.426 226.400,224.864 226.220,225.000 226.000 C 225.136 225.780,225.867 225.600,226.624 225.600 C 227.381 225.600,228.000 225.432,228.000 225.227 C 228.000 225.022,228.384 224.732,228.853 224.583 C 229.352 224.425,229.528 224.203,229.277 224.048 C 229.041 223.902,228.792 222.796,228.724 221.591 L 228.600 219.400 226.200 219.140 C 224.353 218.939,223.726 219.008,223.480 219.440 C 223.095 220.114,214.608 220.260,214.200 219.600 C 214.064 219.380,213.545 219.200,213.046 219.200 C 211.734 219.200,210.253 217.481,210.491 216.234 C 210.597 215.681,210.498 215.166,210.270 215.090 C 210.042 215.014,209.982 214.625,210.135 214.225 C 210.387 213.567,210.834 213.515,214.791 213.678 C 218.183 213.818,219.214 213.739,219.372 213.329 C 219.512 212.965,220.389 212.800,222.187 212.800 C 223.662 212.800,224.800 212.626,224.800 212.400 C 224.800 212.180,225.254 212.000,225.809 212.000 C 228.101 212.000,232.000 208.101,232.000 205.809 C 232.000 205.227,232.229 204.800,232.541 204.800 C 233.154 204.800,232.969 200.708,232.345 200.467 C 232.155 200.393,232.000 199.898,232.000 199.367 C 232.000 198.835,231.863 198.400,231.695 198.400 C 231.527 198.400,231.212 197.995,230.995 197.500 C 230.778 197.005,230.195 196.422,229.700 196.205 C 229.205 195.988,228.800 195.673,228.800 195.505 C 228.800 195.337,228.350 195.200,227.800 195.200 C 227.250 195.200,226.800 195.020,226.800 194.800 C 226.800 194.580,225.823 194.400,224.629 194.400 C 223.232 194.400,222.243 194.186,221.857 193.800 C 221.057 193.000,217.194 193.010,216.484 193.815 M261.055 193.800 C 260.911 194.177,260.299 194.400,259.407 194.400 C 258.627 194.400,257.677 194.559,257.295 194.753 C 256.913 194.948,256.060 195.353,255.400 195.653 C 254.740 195.954,253.851 196.515,253.425 196.900 C 252.998 197.285,252.450 197.600,252.206 197.600 C 251.962 197.600,251.059 198.320,250.200 199.200 C 247.815 201.643,247.260 201.408,247.118 197.900 L 247.000 195.000 244.287 194.881 C 240.450 194.714,239.758 195.320,239.919 198.705 C 240.005 200.508,239.889 201.268,239.507 201.414 C 239.113 201.566,239.016 202.342,239.133 204.409 C 239.257 206.606,239.171 207.200,238.732 207.200 C 238.293 207.200,238.207 207.795,238.332 209.995 C 238.451 212.098,238.355 212.842,237.945 212.999 C 237.546 213.151,237.437 213.854,237.536 215.619 C 237.623 217.159,237.490 218.250,237.168 218.639 C 236.861 219.009,236.700 220.153,236.757 221.554 C 236.822 223.155,236.677 224.004,236.281 224.332 C 234.418 225.879,235.897 226.800,240.247 226.800 C 245.539 226.800,245.858 226.559,245.666 222.700 C 245.562 220.617,245.657 220.000,246.079 220.000 C 246.505 220.000,246.591 219.380,246.468 217.205 C 246.348 215.074,246.443 214.358,246.868 214.195 C 247.293 214.032,247.388 213.318,247.267 211.191 C 247.133 208.812,247.206 208.400,247.762 208.400 C 248.249 208.400,248.355 208.159,248.178 207.454 C 247.933 206.477,250.309 204.000,251.491 204.000 C 251.771 204.000,252.001 203.865,252.003 203.700 C 252.007 203.341,253.944 202.400,254.680 202.400 C 254.966 202.400,255.200 202.220,255.200 202.000 C 255.200 201.365,259.571 201.514,260.229 202.171 C 260.964 202.907,261.012 206.400,260.287 206.400 C 259.903 206.400,259.814 207.106,259.932 209.195 C 260.051 211.298,259.955 212.042,259.545 212.199 C 259.142 212.353,259.035 213.085,259.134 215.003 C 259.232 216.898,259.124 217.654,258.734 217.803 C 258.341 217.953,258.235 218.743,258.333 220.803 C 258.447 223.214,258.372 223.600,257.790 223.600 C 257.338 223.600,257.195 223.810,257.357 224.233 C 257.491 224.581,257.600 225.301,257.600 225.833 C 257.600 226.797,257.613 226.800,262.000 226.800 L 266.400 226.800 266.400 225.787 C 266.400 225.231,266.631 224.686,266.913 224.578 C 267.283 224.436,267.381 223.610,267.267 221.591 C 267.143 219.394,267.229 218.800,267.668 218.800 C 268.107 218.800,268.193 218.205,268.068 216.005 C 267.949 213.902,268.045 213.158,268.455 213.001 C 268.855 212.848,268.963 212.141,268.862 210.344 C 268.771 208.735,268.888 207.793,269.204 207.598 C 271.173 206.381,269.167 195.200,266.980 195.200 C 266.661 195.200,266.400 195.020,266.400 194.800 C 266.400 194.580,265.854 194.400,265.187 194.400 C 264.479 194.400,263.879 194.151,263.745 193.800 C 263.616 193.465,263.022 193.200,262.400 193.200 C 261.778 193.200,261.184 193.465,261.055 193.800 M351.684 193.815 C 351.364 194.179,350.426 194.400,349.208 194.400 C 348.129 194.400,347.136 194.580,347.000 194.800 C 346.864 195.020,346.418 195.200,346.008 195.200 C 344.899 195.200,341.600 198.666,341.600 199.832 C 341.600 200.364,341.375 200.800,341.100 200.799 C 340.740 200.799,340.638 201.473,340.736 203.199 C 340.810 204.520,341.035 205.600,341.236 205.600 C 341.436 205.600,341.600 205.876,341.600 206.214 C 341.600 207.713,345.358 211.200,346.972 211.200 C 347.317 211.200,347.600 211.380,347.600 211.600 C 347.600 211.820,348.050 212.000,348.600 212.000 C 349.150 212.000,349.600 212.180,349.600 212.400 C 349.600 212.620,349.872 212.800,350.205 212.800 C 350.538 212.800,351.123 212.959,351.505 213.153 C 351.887 213.348,352.740 213.729,353.400 214.000 C 354.060 214.271,354.913 214.652,355.295 214.847 C 355.677 215.041,356.189 215.200,356.433 215.200 C 357.285 215.200,359.200 216.861,359.200 217.600 C 359.200 219.603,357.546 219.976,348.149 220.092 L 339.400 220.200 339.276 221.922 C 339.202 222.948,338.922 223.732,338.583 223.862 C 337.662 224.215,338.652 225.600,339.827 225.600 C 340.376 225.600,340.911 225.825,341.017 226.100 C 341.278 226.780,360.223 226.737,360.905 226.055 C 361.155 225.805,361.774 225.600,362.280 225.600 C 362.786 225.600,363.200 225.420,363.200 225.200 C 363.200 224.980,363.436 224.800,363.725 224.800 C 365.020 224.800,367.200 221.407,367.200 219.393 C 367.200 218.501,367.423 217.889,367.800 217.745 C 368.130 217.618,368.400 217.193,368.400 216.800 C 368.400 216.407,368.130 215.982,367.800 215.855 C 367.462 215.726,367.200 215.130,367.200 214.494 C 367.200 213.330,364.683 210.400,363.683 210.400 C 363.417 210.400,363.200 210.220,363.200 210.000 C 363.200 209.780,362.840 209.600,362.400 209.600 C 361.960 209.600,361.600 209.420,361.600 209.200 C 361.600 208.980,361.328 208.800,360.995 208.800 C 360.662 208.800,360.077 208.641,359.695 208.447 C 359.313 208.252,358.460 207.871,357.800 207.600 C 357.140 207.329,356.287 206.948,355.905 206.753 C 355.523 206.559,354.848 206.400,354.405 206.400 C 353.962 206.400,353.600 206.220,353.600 206.000 C 353.600 205.780,353.285 205.587,352.900 205.571 C 351.517 205.513,349.804 204.174,349.671 203.046 C 349.450 201.172,350.242 200.670,352.965 200.954 C 354.278 201.091,358.378 201.085,362.076 200.939 L 368.800 200.675 368.800 198.725 C 368.800 197.399,368.984 196.704,369.375 196.554 C 370.259 196.215,369.636 195.200,368.545 195.200 C 368.011 195.200,367.489 194.975,367.384 194.700 C 367.244 194.334,366.117 194.234,363.168 194.327 C 360.025 194.426,358.933 194.317,358.185 193.827 C 356.920 192.998,352.412 192.990,351.684 193.815 M165.067 195.067 C 164.644 195.490,164.757 199.526,165.200 199.800 C 165.420 199.936,165.600 201.016,165.600 202.200 C 165.600 203.384,165.780 204.464,166.000 204.600 C 166.220 204.736,166.400 205.816,166.400 207.000 C 166.400 208.184,166.580 209.264,166.800 209.400 C 167.020 209.536,167.200 210.616,167.200 211.800 C 167.200 212.984,167.380 214.064,167.600 214.200 C 167.820 214.336,168.000 215.427,168.000 216.624 C 168.000 217.931,168.175 218.800,168.437 218.800 C 168.717 218.800,168.825 219.591,168.737 220.996 C 168.644 222.492,168.760 223.253,169.100 223.384 C 169.375 223.489,169.600 223.957,169.600 224.425 C 169.600 224.938,169.917 225.358,170.400 225.484 C 170.840 225.599,171.200 225.942,171.200 226.247 C 171.200 227.095,180.618 227.050,180.945 226.200 C 181.089 225.823,181.701 225.600,182.587 225.600 C 183.364 225.600,184.000 225.420,184.000 225.200 C 184.000 224.980,184.233 224.800,184.519 224.800 C 185.167 224.800,188.000 221.938,188.000 221.283 C 188.000 221.017,188.135 220.799,188.300 220.797 C 188.465 220.795,188.798 220.390,189.040 219.897 C 189.283 219.404,189.890 218.190,190.390 217.200 C 190.891 216.210,191.458 215.087,191.650 214.705 C 191.843 214.323,192.000 213.738,192.000 213.405 C 192.000 213.072,192.180 212.800,192.400 212.800 C 192.620 212.800,192.800 212.438,192.800 211.995 C 192.800 211.552,192.980 210.832,193.200 210.395 C 193.420 209.958,193.780 209.242,194.000 208.805 C 194.220 208.368,194.400 207.659,194.400 207.229 C 194.400 206.799,194.580 206.336,194.800 206.200 C 195.020 206.064,195.200 205.434,195.200 204.800 C 195.200 204.166,195.380 203.536,195.600 203.400 C 195.820 203.264,196.000 202.533,196.000 201.776 C 196.000 201.019,196.180 200.400,196.400 200.400 C 196.620 200.400,196.800 199.603,196.800 198.629 C 196.800 197.455,196.986 196.815,197.351 196.729 C 197.749 196.636,197.807 196.348,197.559 195.687 C 197.226 194.800,197.084 194.777,192.708 194.887 L 188.200 195.000 188.073 196.100 C 188.004 196.705,187.779 197.200,187.573 197.200 C 187.368 197.200,187.200 198.190,187.200 199.400 C 187.200 200.610,187.020 201.600,186.800 201.600 C 186.580 201.600,186.400 202.309,186.400 203.176 C 186.400 204.043,186.220 204.864,186.000 205.000 C 185.780 205.136,185.600 205.867,185.600 206.624 C 185.600 207.381,185.420 208.000,185.200 208.000 C 184.980 208.000,184.800 208.540,184.800 209.200 C 184.800 209.860,184.620 210.400,184.400 210.400 C 184.180 210.400,184.000 210.762,184.000 211.205 C 184.000 211.648,183.841 212.323,183.647 212.705 C 183.452 213.087,183.071 213.940,182.800 214.600 C 181.062 218.827,180.081 219.968,178.168 219.987 C 176.328 220.006,175.857 218.805,176.076 214.645 C 176.219 211.924,176.138 211.185,175.680 211.009 C 175.219 210.832,175.138 210.036,175.271 206.994 C 175.406 203.911,175.331 203.200,174.871 203.200 C 174.411 203.200,174.336 202.492,174.470 199.427 C 174.629 195.784,174.602 195.638,173.699 195.227 C 172.683 194.764,165.502 194.631,165.067 195.067 M305.745 195.400 C 305.618 195.730,305.300 196.000,305.038 196.000 C 304.701 196.000,304.611 196.772,304.731 198.646 C 304.851 200.530,304.750 201.384,304.382 201.611 C 304.026 201.831,303.894 202.755,303.960 204.568 C 304.028 206.453,303.905 207.261,303.528 207.405 C 303.142 207.553,303.036 208.359,303.133 210.403 C 303.235 212.564,303.142 213.200,302.720 213.200 C 302.294 213.200,302.210 213.833,302.336 216.069 C 302.475 218.525,302.390 219.019,301.749 219.493 C 301.042 220.015,301.039 220.068,301.700 220.443 C 302.134 220.689,302.400 221.317,302.400 222.097 C 302.400 223.774,305.113 226.400,306.846 226.400 C 307.525 226.400,308.123 226.654,308.255 227.000 C 308.404 227.387,309.023 227.600,310.000 227.600 C 310.977 227.600,311.596 227.387,311.745 227.000 C 311.889 226.623,312.501 226.400,313.387 226.400 C 314.164 226.400,314.800 226.220,314.800 226.000 C 314.800 225.780,315.042 225.600,315.339 225.600 C 316.102 225.600,318.224 224.493,318.807 223.792 C 319.077 223.466,319.479 223.200,319.700 223.200 C 319.922 223.200,320.800 222.570,321.653 221.800 C 323.832 219.831,324.000 219.961,324.000 223.600 L 324.000 226.800 327.720 226.800 L 331.440 226.800 331.420 223.700 C 331.407 221.758,331.556 220.627,331.817 220.672 C 332.085 220.719,332.176 219.822,332.070 218.170 C 331.961 216.447,332.076 215.390,332.419 214.977 C 332.745 214.585,332.898 213.416,332.838 211.778 C 332.772 209.939,332.897 209.138,333.272 208.995 C 333.654 208.849,333.763 208.077,333.666 206.197 C 333.566 204.263,333.673 203.547,334.084 203.389 C 334.502 203.229,334.595 202.532,334.468 200.533 C 334.335 198.444,334.429 197.816,334.915 197.544 C 335.363 197.293,335.451 196.900,335.237 196.100 L 334.942 195.000 330.771 195.000 C 326.626 195.000,326.599 195.006,326.460 196.000 C 326.382 196.550,326.127 197.120,325.892 197.266 C 325.641 197.421,325.504 198.625,325.560 200.168 C 325.629 202.082,325.507 202.861,325.115 203.011 C 324.711 203.166,324.615 203.922,324.733 206.009 C 324.857 208.219,324.773 208.800,324.326 208.800 C 323.887 208.800,323.791 209.353,323.893 211.300 C 324.036 214.055,323.923 214.277,321.346 216.279 C 318.324 218.626,316.999 219.179,314.510 219.129 C 311.530 219.069,311.200 218.771,311.200 216.138 C 311.200 214.776,311.385 213.904,311.700 213.784 C 312.049 213.651,312.160 212.809,312.066 210.997 C 311.968 209.103,312.076 208.346,312.466 208.197 C 312.856 208.048,312.964 207.292,312.866 205.397 C 312.768 203.503,312.876 202.746,313.266 202.597 C 313.652 202.449,313.762 201.722,313.663 199.968 C 313.561 198.163,313.680 197.422,314.126 197.071 C 314.559 196.732,314.629 196.348,314.376 195.700 C 313.929 194.551,306.174 194.281,305.745 195.400 M221.200 200.400 C 221.200 200.620,221.573 200.800,222.029 200.800 C 222.484 200.800,223.114 201.057,223.429 201.371 C 224.058 202.001,224.221 204.800,223.628 204.800 C 223.423 204.800,223.198 205.191,223.128 205.668 C 222.912 207.134,220.584 208.128,217.929 207.887 C 216.205 207.731,215.603 207.816,215.440 208.240 C 215.059 209.232,210.400 209.010,210.400 208.000 C 210.400 207.560,210.580 207.200,210.800 207.200 C 211.020 207.200,211.200 206.677,211.200 206.038 C 211.200 204.621,212.748 201.600,213.474 201.600 C 213.763 201.600,214.000 201.400,214.000 201.156 C 214.000 200.885,214.543 200.776,215.400 200.876 C 216.365 200.989,216.800 200.878,216.800 200.520 C 216.800 200.156,217.462 200.000,219.000 200.000 C 220.210 200.000,221.200 200.180,221.200 200.400 " stroke="none" fill="#fcbd5e" fill-rule="evenodd"></path><path id="path1" d="M304.900 86.598 C 304.625 86.911,304.400 87.624,304.400 88.183 C 304.400 88.742,304.220 89.200,304.000 89.200 C 303.780 89.200,303.600 89.830,303.600 90.600 C 303.600 91.370,303.793 92.000,304.029 92.000 C 304.264 92.000,304.187 92.270,303.857 92.600 C 303.527 92.930,303.058 93.200,302.815 93.200 C 301.740 93.200,299.600 95.971,299.600 97.363 C 299.600 98.127,299.420 98.864,299.200 99.000 C 298.980 99.136,298.800 99.517,298.800 99.847 C 298.800 100.177,298.995 100.327,299.234 100.179 C 299.510 100.009,299.619 100.254,299.534 100.856 C 299.443 101.495,299.094 101.843,298.453 101.934 C 296.136 102.262,294.800 104.475,294.800 107.987 C 294.800 109.754,294.650 111.200,294.467 111.200 C 294.283 111.200,294.133 111.462,294.133 111.782 C 294.133 112.103,294.283 112.272,294.467 112.159 C 294.650 112.045,294.800 112.336,294.800 112.805 C 294.800 114.106,295.771 114.800,297.590 114.800 C 300.135 114.800,301.200 113.510,301.200 110.426 C 301.200 108.143,301.257 108.001,302.276 107.745 C 304.622 107.156,306.000 105.110,306.000 102.213 C 306.000 100.641,306.169 99.600,306.424 99.600 C 306.657 99.600,306.736 99.420,306.600 99.200 C 306.464 98.980,306.732 98.800,307.195 98.800 C 308.174 98.800,310.000 97.120,310.000 96.218 C 310.000 95.878,310.180 95.600,310.400 95.600 C 311.180 95.600,310.900 87.164,310.100 86.557 C 309.156 85.840,305.542 85.869,304.900 86.598 M323.300 92.998 C 322.451 93.963,322.618 102.374,323.500 103.043 C 324.691 103.947,327.107 103.729,328.218 102.618 C 329.265 101.571,329.776 94.000,328.800 94.000 C 328.580 94.000,328.400 93.640,328.400 93.200 C 328.400 92.194,324.156 92.026,323.300 92.998 M330.900 110.210 C 330.368 110.779,330.000 111.677,330.000 112.409 C 330.000 113.133,329.834 113.544,329.600 113.400 C 329.380 113.264,329.200 113.523,329.200 113.976 C 329.200 114.628,328.945 114.800,327.976 114.800 C 327.263 114.800,326.856 114.967,327.000 115.200 C 327.136 115.420,326.871 115.600,326.410 115.600 C 325.208 115.600,322.800 118.142,322.800 119.410 C 322.800 120.000,322.627 120.341,322.400 120.200 C 322.173 120.060,322.000 120.396,322.000 120.976 C 322.000 121.924,321.865 122.000,320.187 122.000 C 318.030 122.000,315.600 124.006,315.600 125.787 C 315.600 126.344,315.420 126.800,315.200 126.800 C 314.980 126.800,314.800 127.340,314.800 128.000 C 314.800 128.660,314.620 129.200,314.400 129.200 C 313.554 129.200,313.983 132.020,314.982 133.018 C 316.677 134.713,320.400 134.170,320.400 132.229 C 320.400 131.883,320.580 131.600,320.800 131.600 C 321.020 131.600,321.200 131.139,321.200 130.576 C 321.200 129.996,321.373 129.660,321.600 129.800 C 321.820 129.936,322.000 129.677,322.000 129.224 C 322.000 128.548,322.253 128.400,323.409 128.400 C 324.582 128.400,325.183 128.034,327.009 126.209 C 329.038 124.180,329.762 123.205,328.800 123.800 C 328.580 123.936,328.400 123.867,328.400 123.647 C 328.400 123.427,328.580 123.136,328.800 123.000 C 329.020 122.864,329.200 122.403,329.200 121.976 C 329.200 121.410,329.477 121.200,330.224 121.200 C 330.926 121.200,331.159 121.357,330.965 121.700 C 330.739 122.100,330.790 122.100,331.221 121.700 C 331.518 121.425,332.000 121.200,332.293 121.200 C 333.223 121.200,335.600 118.495,335.600 117.437 C 335.600 116.893,335.780 116.336,336.000 116.200 C 336.220 116.064,336.400 115.513,336.400 114.976 C 336.400 114.439,336.580 114.000,336.800 114.000 C 337.646 114.000,337.217 111.180,336.218 110.182 C 334.862 108.826,332.183 108.840,330.900 110.210 M305.700 112.198 C 305.042 112.946,305.081 116.409,305.757 117.300 C 306.692 118.532,314.121 118.315,315.418 117.018 C 316.417 116.020,316.846 113.200,316.000 113.200 C 315.780 113.200,315.600 112.840,315.600 112.400 C 315.600 111.364,306.596 111.180,305.700 112.198 M287.700 117.410 C 287.205 117.939,286.800 118.648,286.800 118.986 C 286.800 119.324,286.620 119.600,286.400 119.600 C 286.180 119.600,286.000 119.960,286.000 120.400 C 286.000 120.840,285.820 121.200,285.600 121.200 C 285.380 121.200,285.200 121.740,285.200 122.400 C 285.200 123.060,285.020 123.600,284.800 123.600 C 284.580 123.600,284.400 124.050,284.400 124.600 C 284.400 125.150,284.220 125.600,284.000 125.600 C 283.780 125.600,283.600 125.870,283.600 126.200 C 283.600 126.530,283.420 126.800,283.200 126.800 C 282.980 126.800,282.800 127.441,282.800 128.224 C 282.800 129.071,282.638 129.547,282.400 129.400 C 282.167 129.256,282.000 129.663,282.000 130.376 C 282.000 131.049,281.820 131.600,281.600 131.600 C 281.380 131.600,281.200 131.834,281.200 132.120 C 281.200 132.856,280.259 134.793,279.900 134.797 C 279.735 134.799,279.600 135.340,279.600 136.000 C 279.600 136.660,279.420 137.200,279.200 137.200 C 278.980 137.200,278.800 137.549,278.800 137.976 C 278.800 138.403,278.620 138.864,278.400 139.000 C 278.180 139.136,278.000 139.687,278.000 140.224 C 278.000 140.761,277.820 141.200,277.600 141.200 C 277.380 141.200,277.200 141.639,277.200 142.176 C 277.200 142.713,277.020 143.264,276.800 143.400 C 276.580 143.536,276.400 143.997,276.400 144.424 C 276.400 144.851,276.220 145.200,276.000 145.200 C 275.780 145.200,275.600 145.661,275.600 146.224 C 275.600 146.804,275.427 147.140,275.200 147.000 C 274.980 146.864,274.800 147.123,274.800 147.576 C 274.800 148.029,274.620 148.400,274.400 148.400 C 274.180 148.400,274.000 149.041,274.000 149.824 C 274.000 150.671,273.838 151.147,273.600 151.000 C 273.380 150.864,273.200 151.123,273.200 151.576 C 273.200 152.029,273.020 152.400,272.800 152.400 C 272.580 152.400,272.400 152.940,272.400 153.600 C 272.400 154.260,272.220 154.800,272.000 154.800 C 271.780 154.800,271.600 155.216,271.600 155.725 C 271.600 156.233,271.240 157.036,270.800 157.508 C 270.360 157.980,270.000 158.824,270.000 159.383 C 270.000 159.942,269.820 160.400,269.600 160.400 C 269.380 160.400,269.200 160.900,269.200 161.512 C 269.200 162.165,268.870 162.861,268.400 163.200 C 267.930 163.539,267.600 164.235,267.600 164.888 C 267.600 165.500,267.420 166.000,267.200 166.000 C 266.980 166.000,266.800 166.360,266.800 166.800 C 266.800 167.240,266.620 167.600,266.400 167.600 C 266.180 167.600,266.000 168.129,266.000 168.776 C 266.000 169.423,265.820 170.064,265.600 170.200 C 265.380 170.336,265.200 170.887,265.200 171.424 C 265.200 171.961,265.020 172.400,264.800 172.400 C 264.580 172.400,264.400 172.850,264.400 173.400 C 264.400 173.950,264.220 174.400,264.000 174.400 C 263.359 174.400,263.509 179.166,264.171 179.829 C 264.829 180.486,269.200 180.635,269.200 180.000 C 269.200 179.780,269.650 179.600,270.200 179.600 C 270.750 179.600,271.200 179.420,271.200 179.200 C 271.200 178.980,271.650 178.800,272.200 178.800 C 272.750 178.800,273.200 178.620,273.200 178.400 C 273.200 178.180,273.740 178.000,274.400 178.000 C 275.060 178.000,275.600 177.820,275.600 177.600 C 275.600 177.380,275.960 177.200,276.400 177.200 C 276.840 177.200,277.200 177.020,277.200 176.800 C 277.200 176.580,277.740 176.400,278.400 176.400 C 279.060 176.400,279.600 176.220,279.600 176.000 C 279.600 175.780,279.960 175.600,280.400 175.600 C 280.840 175.600,281.200 175.420,281.200 175.200 C 281.200 174.980,281.560 174.800,282.000 174.800 C 282.440 174.800,282.800 174.620,282.800 174.400 C 282.800 174.180,283.250 174.000,283.800 174.000 C 284.350 174.000,284.800 173.820,284.800 173.600 C 284.800 173.380,285.250 173.200,285.800 173.200 C 286.350 173.200,286.800 173.020,286.800 172.800 C 286.800 172.580,287.239 172.400,287.776 172.400 C 288.313 172.400,288.864 172.220,289.000 172.000 C 289.136 171.780,289.597 171.600,290.024 171.600 C 290.451 171.600,290.800 171.420,290.800 171.200 C 290.800 170.980,291.340 170.800,292.000 170.800 C 292.660 170.800,293.200 170.620,293.200 170.400 C 293.200 170.180,293.700 170.000,294.312 170.000 C 294.965 170.000,295.661 169.670,296.000 169.200 C 296.339 168.730,297.035 168.400,297.688 168.400 C 298.300 168.400,298.800 168.220,298.800 168.000 C 298.800 167.780,299.160 167.600,299.600 167.600 C 300.040 167.600,300.400 167.420,300.400 167.200 C 300.400 166.980,300.850 166.800,301.400 166.800 C 301.950 166.800,302.400 166.620,302.400 166.400 C 302.400 166.180,302.850 166.000,303.400 166.000 C 303.950 166.000,304.400 165.820,304.400 165.600 C 304.400 165.380,304.724 165.200,305.120 165.200 C 306.014 165.200,307.993 164.306,307.997 163.900 C 307.999 163.735,308.630 163.600,309.400 163.600 C 310.170 163.600,310.800 163.420,310.800 163.200 C 310.800 162.980,311.160 162.800,311.600 162.800 C 312.040 162.800,312.400 162.620,312.400 162.400 C 312.400 162.180,312.760 162.000,313.200 162.000 C 313.640 162.000,314.000 161.820,314.000 161.600 C 314.000 161.380,314.450 161.200,315.000 161.200 C 315.550 161.200,316.000 161.020,316.000 160.800 C 316.000 160.580,316.630 160.400,317.400 160.400 C 318.170 160.400,318.800 160.220,318.800 160.000 C 318.800 159.780,319.160 159.600,319.600 159.600 C 320.040 159.600,320.400 159.420,320.400 159.200 C 320.400 158.980,320.760 158.800,321.200 158.800 C 321.640 158.800,322.000 158.620,322.000 158.400 C 322.000 158.180,322.540 158.000,323.200 158.000 C 323.860 158.000,324.400 157.820,324.400 157.600 C 324.400 157.380,324.678 157.200,325.018 157.200 C 326.256 157.200,327.600 155.335,327.600 153.617 C 327.600 152.016,327.404 151.802,309.801 134.199 L 292.002 116.400 290.301 116.424 C 289.042 116.443,288.366 116.698,287.700 117.410 M340.500 122.210 C 339.449 123.333,339.259 126.116,340.171 127.029 C 340.934 127.792,349.421 127.851,350.129 127.098 C 351.138 126.025,351.787 125.054,351.300 125.347 C 350.932 125.568,350.800 125.210,350.800 123.995 C 350.800 121.462,350.293 121.196,345.529 121.224 C 341.702 121.247,341.334 121.319,340.500 122.210 M292.400 126.800 C 292.400 127.255,292.667 127.600,293.018 127.600 C 293.724 127.600,295.600 129.344,295.600 130.000 C 295.600 130.560,297.430 132.400,297.987 132.400 C 299.034 132.400,306.000 139.985,305.972 141.095 C 305.950 141.957,305.881 142.041,305.659 141.478 C 305.307 140.585,303.600 141.803,303.600 142.947 C 303.600 143.406,303.243 143.600,302.400 143.600 C 301.256 143.600,300.912 144.178,301.153 145.700 C 301.179 145.865,300.840 146.000,300.400 146.000 C 299.822 146.000,299.600 146.267,299.600 146.963 C 299.600 147.751,299.444 147.884,298.737 147.700 C 298.146 147.545,297.965 147.620,298.161 147.937 C 298.331 148.212,298.194 148.400,297.824 148.400 C 297.467 148.400,297.200 148.742,297.200 149.200 C 297.200 149.661,296.933 150.000,296.571 150.000 C 295.678 150.000,294.681 151.112,294.949 151.810 C 295.110 152.232,294.893 152.400,294.187 152.400 C 293.404 152.400,293.200 152.604,293.200 153.387 C 293.200 154.093,293.032 154.310,292.610 154.149 C 291.912 153.881,290.800 154.878,290.800 155.771 C 290.800 156.117,290.517 156.400,290.171 156.400 C 288.897 156.400,287.873 158.121,288.900 158.535 C 289.175 158.646,288.894 158.751,288.276 158.768 C 287.524 158.790,287.247 158.648,287.438 158.338 C 287.615 158.052,287.548 157.985,287.262 158.162 C 287.008 158.319,286.800 158.887,286.800 159.424 C 286.800 160.242,286.606 160.400,285.600 160.400 C 284.533 160.400,284.400 160.533,284.400 161.600 C 284.400 162.606,284.242 162.800,283.424 162.800 C 282.887 162.800,282.319 163.008,282.162 163.262 C 281.972 163.569,282.054 163.614,282.407 163.396 C 282.698 163.216,282.591 163.542,282.168 164.122 C 281.746 164.701,281.175 165.181,280.900 165.187 C 280.625 165.194,280.400 165.560,280.400 166.000 C 280.400 166.461,280.133 166.800,279.771 166.800 C 278.963 166.800,278.000 167.763,278.000 168.571 C 278.000 168.933,277.661 169.200,277.200 169.200 C 276.760 169.200,276.400 169.380,276.400 169.600 C 276.400 169.820,275.860 170.000,275.200 170.000 C 274.540 170.000,274.000 170.180,274.000 170.400 C 274.000 170.620,273.820 170.800,273.600 170.800 C 273.380 170.800,273.200 170.440,273.200 170.000 C 273.200 169.560,273.380 169.200,273.600 169.200 C 273.820 169.200,274.000 168.840,274.000 168.400 C 274.000 167.960,274.180 167.600,274.400 167.600 C 274.620 167.600,274.800 167.240,274.800 166.800 C 274.800 166.360,274.980 166.000,275.200 166.000 C 275.420 166.000,275.600 165.370,275.600 164.600 C 275.600 163.830,275.780 163.200,276.000 163.200 C 276.220 163.200,276.400 162.930,276.400 162.600 C 276.400 162.270,276.580 162.000,276.800 162.000 C 277.020 162.000,277.200 161.359,277.200 160.576 C 277.200 159.729,277.362 159.253,277.600 159.400 C 277.831 159.543,278.000 159.167,278.000 158.512 C 278.000 157.835,278.323 157.144,278.800 156.800 C 279.600 156.224,279.956 155.333,279.200 155.800 C 278.980 155.936,278.800 155.857,278.800 155.624 C 278.800 155.391,278.980 155.200,279.200 155.200 C 279.420 155.200,279.600 154.930,279.600 154.600 C 279.600 154.270,279.780 154.000,280.000 154.000 C 280.220 154.000,280.400 153.460,280.400 152.800 C 280.400 152.140,280.580 151.600,280.800 151.600 C 281.020 151.600,281.200 151.240,281.200 150.800 C 281.200 150.360,281.380 150.000,281.600 150.000 C 281.820 150.000,282.000 149.460,282.000 148.800 C 282.000 148.140,282.180 147.600,282.400 147.600 C 282.620 147.600,282.800 147.139,282.800 146.576 C 282.800 145.996,282.973 145.660,283.200 145.800 C 283.433 145.944,283.600 145.537,283.600 144.824 C 283.600 144.151,283.780 143.600,284.000 143.600 C 284.220 143.600,284.400 143.139,284.400 142.576 C 284.400 141.996,284.573 141.660,284.800 141.800 C 285.033 141.944,285.200 141.537,285.200 140.824 C 285.200 140.151,285.380 139.600,285.600 139.600 C 285.820 139.600,286.000 139.240,286.000 138.800 C 286.000 138.360,286.180 138.000,286.400 138.000 C 286.620 138.000,286.800 137.640,286.800 137.200 C 286.800 136.760,286.980 136.400,287.200 136.400 C 287.420 136.400,287.600 135.860,287.600 135.200 C 287.600 134.540,287.780 134.000,288.000 134.000 C 288.220 134.000,288.400 133.640,288.400 133.200 C 288.400 132.760,288.580 132.400,288.800 132.400 C 289.020 132.400,289.200 131.860,289.200 131.200 C 289.200 130.540,289.380 130.000,289.600 130.000 C 289.820 130.000,290.000 129.640,290.000 129.200 C 290.000 128.760,290.180 128.400,290.400 128.400 C 290.620 128.400,290.800 127.860,290.800 127.200 C 290.800 126.267,290.978 126.000,291.600 126.000 C 292.133 126.000,292.400 126.267,292.400 126.800 M331.100 127.747 C 330.066 128.636,330.000 128.891,330.000 131.970 C 330.000 134.053,329.854 135.157,329.600 135.000 C 329.380 134.864,329.200 134.943,329.200 135.176 C 329.200 135.409,329.380 135.600,329.600 135.600 C 329.820 135.600,330.000 136.140,330.000 136.800 C 330.000 137.905,330.111 138.000,331.400 138.000 C 332.170 138.000,332.800 138.180,332.800 138.400 C 332.800 138.620,333.070 138.800,333.400 138.800 C 333.730 138.800,334.000 138.620,334.000 138.400 C 334.000 138.180,334.283 138.000,334.629 138.000 C 336.726 138.000,337.365 129.729,335.418 127.782 C 334.169 126.533,332.527 126.520,331.100 127.747 M350.200 136.800 C 350.064 137.020,349.685 137.200,349.358 137.200 C 348.577 137.200,346.800 138.993,346.800 139.782 C 346.800 140.542,344.556 140.648,344.286 139.900 C 344.141 139.500,343.935 139.500,343.258 139.900 C 342.792 140.175,341.958 140.400,341.405 140.400 C 340.852 140.400,340.400 140.580,340.400 140.800 C 340.400 141.020,340.117 141.200,339.771 141.200 C 339.039 141.200,338.000 142.138,338.000 142.800 C 338.000 143.051,337.730 143.527,337.400 143.857 C 337.070 144.187,336.800 144.264,336.800 144.029 C 336.800 143.075,332.036 143.528,330.982 144.582 C 329.248 146.315,329.903 150.000,331.944 150.000 C 332.415 150.000,332.800 150.180,332.800 150.400 C 332.800 150.639,334.333 150.800,336.600 150.800 C 338.867 150.800,340.400 150.639,340.400 150.400 C 340.400 150.180,340.683 150.000,341.029 150.000 C 341.761 150.000,342.800 149.062,342.800 148.400 C 342.800 147.669,343.871 146.800,344.771 146.800 C 345.227 146.800,345.600 146.980,345.600 147.200 C 345.600 147.420,346.140 147.600,346.800 147.600 C 347.460 147.600,348.000 147.420,348.000 147.200 C 348.000 146.980,348.450 146.800,349.000 146.800 C 349.550 146.800,350.000 146.620,350.000 146.400 C 350.000 146.180,350.283 146.000,350.629 146.000 C 351.437 146.000,352.400 145.037,352.400 144.229 C 352.400 143.713,352.941 143.600,355.418 143.600 C 358.089 143.600,358.549 143.487,359.418 142.618 C 360.424 141.612,360.768 139.475,360.000 139.000 C 359.780 138.864,359.600 138.447,359.600 138.073 C 359.600 137.699,359.221 137.156,358.758 136.867 C 358.295 136.578,358.036 136.534,358.182 136.770 C 358.328 137.007,358.272 137.200,358.057 137.200 C 357.842 137.200,357.576 136.975,357.465 136.700 C 357.304 136.300,357.257 136.300,357.232 136.700 C 357.214 136.975,356.829 137.200,356.376 137.200 C 355.923 137.200,355.664 137.020,355.800 136.800 C 355.956 136.548,355.012 136.400,353.247 136.400 C 351.707 136.400,350.336 136.580,350.200 136.800 M306.000 145.200 C 306.000 145.733,305.733 146.000,305.200 146.000 C 304.667 146.000,304.400 145.733,304.400 145.200 C 304.400 144.667,304.667 144.400,305.200 144.400 C 305.733 144.400,306.000 144.667,306.000 145.200 M310.000 145.229 C 310.000 146.254,308.676 146.138,308.475 145.095 C 308.383 144.615,308.598 144.400,309.171 144.400 C 309.743 144.400,310.000 144.657,310.000 145.229 M303.600 147.449 C 303.600 148.004,303.499 148.021,302.900 147.562 C 302.515 147.267,302.125 146.975,302.033 146.913 C 301.942 146.851,302.257 146.800,302.733 146.800 C 303.266 146.800,303.600 147.050,303.600 147.449 M307.716 147.600 C 307.882 148.236,307.728 148.400,306.963 148.400 C 306.267 148.400,306.000 148.622,306.000 149.200 C 306.000 149.733,305.733 150.000,305.200 150.000 C 304.760 150.000,304.400 149.820,304.400 149.600 C 304.400 149.380,304.580 149.200,304.800 149.200 C 305.319 149.200,306.800 147.719,306.800 147.200 C 306.800 146.476,307.502 146.783,307.716 147.600 M312.400 147.600 C 312.400 148.222,312.667 148.400,313.600 148.400 C 314.667 148.400,314.800 148.533,314.800 149.600 C 314.800 150.681,314.929 150.803,316.100 150.832 C 316.815 150.849,317.175 150.954,316.900 151.065 C 316.122 151.379,316.309 151.991,317.300 152.373 C 318.158 152.704,318.164 152.734,317.424 153.032 C 316.934 153.229,316.590 153.170,316.491 152.872 C 316.248 152.145,314.800 152.303,314.800 153.056 C 314.800 153.768,313.704 154.767,312.900 154.787 C 312.608 154.795,312.400 154.300,312.400 153.600 C 312.400 152.667,312.222 152.400,311.600 152.400 C 311.067 152.400,310.800 152.133,310.800 151.600 C 310.800 151.067,311.067 150.800,311.600 150.800 C 312.222 150.800,312.400 150.533,312.400 149.600 C 312.400 148.667,312.222 148.400,311.600 148.400 C 311.067 148.400,310.800 148.133,310.800 147.600 C 310.800 147.067,311.067 146.800,311.600 146.800 C 312.133 146.800,312.400 147.067,312.400 147.600 M310.000 149.200 C 310.000 149.733,309.733 150.000,309.200 150.000 C 308.667 150.000,308.400 149.733,308.400 149.200 C 308.400 148.667,308.667 148.400,309.200 148.400 C 309.733 148.400,310.000 148.667,310.000 149.200 M299.600 151.600 C 299.600 152.133,299.333 152.400,298.800 152.400 C 298.267 152.400,298.000 152.133,298.000 151.600 C 298.000 151.067,298.267 150.800,298.800 150.800 C 299.333 150.800,299.600 151.067,299.600 151.600 M303.600 151.629 C 303.600 152.654,302.276 152.538,302.075 151.495 C 301.983 151.015,302.198 150.800,302.771 150.800 C 303.343 150.800,303.600 151.057,303.600 151.629 M307.600 151.600 C 307.600 152.040,307.347 152.400,307.037 152.400 C 306.672 152.400,306.548 152.120,306.684 151.600 C 306.799 151.160,307.052 150.800,307.247 150.800 C 307.441 150.800,307.600 151.160,307.600 151.600 M312.400 151.600 C 312.400 152.222,312.667 152.400,313.600 152.400 C 314.533 152.400,314.800 152.222,314.800 151.600 C 314.800 150.978,314.533 150.800,313.600 150.800 C 312.667 150.800,312.400 150.978,312.400 151.600 M306.000 154.000 C 306.000 154.533,305.733 154.800,305.200 154.800 C 304.667 154.800,304.400 154.533,304.400 154.000 C 304.400 153.467,304.667 153.200,305.200 153.200 C 305.733 153.200,306.000 153.467,306.000 154.000 M310.000 153.972 C 310.000 154.468,309.678 154.790,309.100 154.872 C 308.509 154.956,308.200 155.275,308.200 155.800 C 308.200 156.334,307.972 156.562,307.513 156.485 C 307.134 156.422,306.596 156.737,306.316 157.185 C 305.664 158.230,304.884 158.219,303.959 157.153 C 303.535 156.663,302.965 156.404,302.612 156.540 C 302.165 156.712,302.000 156.509,302.000 155.787 C 302.000 155.020,302.208 154.800,302.932 154.800 C 303.622 154.800,303.855 155.018,303.832 155.642 C 303.783 156.940,305.567 158.014,305.867 156.867 C 305.990 156.395,306.279 156.125,306.508 156.267 C 306.771 156.430,306.843 156.206,306.700 155.663 C 306.516 154.956,306.649 154.800,307.437 154.800 C 308.133 154.800,308.400 154.578,308.400 154.000 C 308.400 153.467,308.667 153.200,309.200 153.200 C 309.724 153.200,310.000 153.467,310.000 153.972 M294.794 156.100 C 294.797 156.265,294.620 156.400,294.400 156.400 C 294.180 156.400,294.003 155.995,294.006 155.500 C 294.012 154.641,294.776 155.223,294.794 156.100 M299.000 155.200 C 298.864 155.420,298.943 155.600,299.176 155.600 C 299.409 155.600,299.600 155.780,299.600 156.000 C 299.600 156.220,299.240 156.400,298.800 156.400 C 298.267 156.400,298.000 156.133,298.000 155.600 C 298.000 155.142,298.267 154.800,298.624 154.800 C 298.967 154.800,299.136 154.980,299.000 155.200 M293.200 157.625 C 293.200 157.831,293.009 158.000,292.776 158.000 C 292.543 158.000,292.464 158.180,292.600 158.400 C 292.736 158.620,292.567 158.800,292.224 158.800 C 291.285 158.800,291.453 157.381,292.400 157.310 C 292.840 157.277,293.200 157.419,293.200 157.625 M297.200 158.000 C 297.200 158.533,296.933 158.800,296.400 158.800 C 295.833 158.800,295.600 159.067,295.600 159.714 C 295.600 160.362,295.367 160.629,294.800 160.629 C 294.360 160.629,294.000 160.397,294.000 160.114 C 294.000 159.831,294.274 159.600,294.610 159.600 C 294.968 159.600,295.319 159.104,295.460 158.400 C 295.742 156.991,297.200 156.655,297.200 158.000 M302.000 158.000 C 302.000 158.533,301.733 158.800,301.200 158.800 C 300.667 158.800,300.400 158.533,300.400 158.000 C 300.400 157.467,300.667 157.200,301.200 157.200 C 301.733 157.200,302.000 157.467,302.000 158.000 M299.600 160.000 C 299.600 160.220,299.240 160.400,298.800 160.400 C 298.360 160.400,298.000 160.220,298.000 160.000 C 298.000 159.780,298.360 159.600,298.800 159.600 C 299.240 159.600,299.600 159.780,299.600 160.000 M293.200 162.000 C 293.200 162.533,292.933 162.800,292.400 162.800 C 291.867 162.800,291.600 162.533,291.600 162.000 C 291.600 161.467,291.867 161.200,292.400 161.200 C 292.933 161.200,293.200 161.467,293.200 162.000 M286.800 164.400 C 286.800 164.933,286.533 165.200,286.000 165.200 C 285.467 165.200,285.200 164.933,285.200 164.400 C 285.200 163.867,285.467 163.600,286.000 163.600 C 286.533 163.600,286.800 163.867,286.800 164.400 M38.800 181.600 C 38.800 181.820,38.440 182.000,38.000 182.000 C 37.467 182.000,37.200 182.267,37.200 182.800 C 37.200 183.240,37.020 183.600,36.800 183.600 C 36.580 183.600,36.400 184.320,36.400 185.200 C 36.400 186.080,36.220 186.800,36.000 186.800 C 35.780 186.800,35.600 187.779,35.600 188.976 C 35.600 190.173,35.420 191.264,35.200 191.400 C 34.980 191.536,34.800 192.537,34.800 193.624 C 34.800 194.711,34.620 195.600,34.400 195.600 C 34.178 195.600,34.000 196.667,34.000 198.000 C 34.000 199.333,33.822 200.400,33.600 200.400 C 33.380 200.400,33.200 201.390,33.200 202.600 C 33.200 203.810,33.020 204.800,32.800 204.800 C 32.580 204.800,32.400 205.790,32.400 207.000 C 32.400 208.210,32.220 209.200,32.000 209.200 C 31.780 209.200,31.600 210.190,31.600 211.400 C 31.600 212.610,31.420 213.600,31.200 213.600 C 30.980 213.600,30.800 214.579,30.800 215.776 C 30.800 216.973,30.620 218.064,30.400 218.200 C 30.180 218.336,30.000 219.347,30.000 220.447 C 30.000 221.679,29.846 222.352,29.600 222.200 C 29.350 222.046,29.200 222.863,29.200 224.376 L 29.200 226.800 34.400 226.800 L 39.600 226.800 39.600 224.576 C 39.600 223.196,39.752 222.447,40.000 222.600 C 40.240 222.748,40.400 222.231,40.400 221.304 C 40.400 220.455,40.625 219.518,40.900 219.221 C 41.300 218.790,41.300 218.739,40.900 218.965 C 40.570 219.151,40.400 218.966,40.400 218.424 C 40.400 217.971,40.580 217.600,40.800 217.600 C 41.020 217.600,41.200 216.621,41.200 215.424 C 41.200 214.227,41.380 213.136,41.600 213.000 C 41.820 212.864,42.000 211.773,42.000 210.576 C 42.000 209.379,42.180 208.400,42.400 208.400 C 42.620 208.400,42.800 207.421,42.800 206.224 C 42.800 205.027,42.980 203.936,43.200 203.800 C 43.420 203.664,43.600 203.059,43.600 202.456 C 43.600 201.853,43.825 201.118,44.100 200.821 C 44.500 200.390,44.500 200.339,44.100 200.565 C 43.770 200.751,43.600 200.566,43.600 200.024 C 43.600 199.571,43.780 199.200,44.000 199.200 C 44.220 199.200,44.400 198.570,44.400 197.800 C 44.400 197.030,44.580 196.400,44.800 196.400 C 45.020 196.400,45.200 196.209,45.200 195.976 C 45.200 195.743,45.020 195.664,44.800 195.800 C 44.580 195.936,44.400 195.756,44.400 195.400 C 44.400 195.044,44.580 194.864,44.800 195.000 C 45.050 195.154,45.200 194.345,45.200 192.847 C 45.200 191.527,45.380 190.336,45.600 190.200 C 45.851 190.045,46.000 190.929,46.000 192.576 C 46.000 194.059,46.174 195.200,46.400 195.200 C 46.637 195.200,46.800 196.667,46.800 198.800 C 46.800 200.933,46.963 202.400,47.200 202.400 C 47.435 202.400,47.600 203.789,47.600 205.767 C 47.600 207.618,47.771 209.193,47.980 209.267 C 48.189 209.340,48.392 211.061,48.432 213.091 C 48.472 215.121,48.661 216.686,48.852 216.568 C 49.044 216.449,49.200 217.006,49.200 217.805 C 49.200 219.638,49.955 220.400,51.771 220.400 C 52.557 220.400,53.200 220.586,53.200 220.814 C 53.200 221.100,53.440 221.100,53.974 220.814 C 55.085 220.220,59.086 220.284,59.335 220.900 C 59.496 221.300,59.543 221.300,59.568 220.900 C 59.587 220.600,60.167 220.400,61.018 220.400 C 62.732 220.400,64.400 218.929,64.400 217.418 C 64.400 216.858,64.580 216.400,64.800 216.400 C 65.020 216.400,65.200 216.040,65.200 215.600 C 65.200 215.160,65.380 214.800,65.600 214.800 C 65.820 214.800,66.000 214.159,66.000 213.376 C 66.000 212.529,66.162 212.053,66.400 212.200 C 66.633 212.344,66.800 211.937,66.800 211.224 C 66.800 210.551,66.980 210.000,67.200 210.000 C 67.420 210.000,67.600 209.449,67.600 208.776 C 67.600 208.063,67.767 207.656,68.000 207.800 C 68.227 207.940,68.400 207.604,68.400 207.024 C 68.400 206.461,68.580 206.000,68.800 206.000 C 69.020 206.000,69.200 205.460,69.200 204.800 C 69.200 204.140,69.380 203.600,69.600 203.600 C 69.820 203.600,70.000 203.060,70.000 202.400 C 70.000 201.740,70.180 201.200,70.400 201.200 C 70.620 201.200,70.800 200.739,70.800 200.176 C 70.800 199.596,70.973 199.260,71.200 199.400 C 71.433 199.544,71.600 199.137,71.600 198.424 C 71.600 197.751,71.780 197.200,72.000 197.200 C 72.220 197.200,72.400 196.739,72.400 196.176 C 72.400 195.596,72.573 195.260,72.800 195.400 C 73.028 195.541,73.200 195.195,73.200 194.595 C 73.200 194.016,73.459 193.284,73.776 192.967 C 74.093 192.650,74.282 192.028,74.197 191.585 C 74.112 191.141,74.212 190.884,74.421 191.013 C 75.015 191.380,74.900 194.124,74.300 193.893 C 73.916 193.745,73.830 194.583,73.929 197.501 C 74.008 199.844,73.893 201.467,73.629 201.731 C 73.389 201.971,73.200 203.703,73.200 205.656 C 73.200 207.579,73.020 209.264,72.800 209.400 C 72.580 209.536,72.400 211.257,72.400 213.224 C 72.400 215.341,72.237 216.800,72.000 216.800 C 71.776 216.800,71.600 217.907,71.600 219.320 C 71.600 220.782,71.390 222.066,71.100 222.379 C 70.700 222.810,70.700 222.861,71.100 222.635 C 71.443 222.441,71.600 222.674,71.600 223.376 C 71.600 223.939,71.420 224.400,71.200 224.400 C 70.980 224.400,70.800 224.940,70.800 225.600 L 70.800 226.800 76.400 226.800 C 80.075 226.800,82.000 226.654,82.000 226.376 C 82.000 226.143,81.820 226.064,81.600 226.200 C 81.380 226.336,81.200 226.077,81.200 225.624 C 81.200 225.171,81.380 224.800,81.600 224.800 C 81.840 224.800,82.000 223.192,82.000 220.776 C 82.000 218.131,82.140 216.840,82.410 217.006 C 82.635 217.145,82.794 217.111,82.763 216.930 C 82.501 215.425,82.873 207.998,83.200 208.200 C 83.456 208.359,83.600 207.012,83.600 204.447 C 83.600 202.212,83.776 200.338,84.000 200.200 C 84.223 200.062,84.400 198.196,84.400 195.976 C 84.400 193.592,84.560 192.000,84.800 192.000 C 85.045 192.000,85.200 190.067,85.200 187.000 C 85.200 182.267,85.157 182.000,84.400 182.000 C 83.960 182.000,83.600 181.820,83.600 181.600 C 83.600 181.349,81.067 181.200,76.800 181.200 C 72.533 181.200,70.000 181.349,70.000 181.600 C 70.000 181.820,69.717 182.000,69.371 182.000 C 68.563 182.000,67.600 182.963,67.600 183.771 C 67.600 184.117,67.420 184.400,67.200 184.400 C 66.980 184.400,66.800 184.940,66.800 185.600 C 66.800 186.260,66.620 186.800,66.400 186.800 C 66.180 186.800,66.000 187.160,66.000 187.600 C 66.000 188.040,65.859 188.400,65.687 188.400 C 65.515 188.400,65.334 188.887,65.285 189.482 C 65.236 190.078,65.016 190.744,64.798 190.962 C 64.579 191.181,64.400 191.774,64.400 192.280 C 64.400 192.786,64.220 193.200,64.000 193.200 C 63.780 193.200,63.600 193.639,63.600 194.176 C 63.600 194.713,63.420 195.264,63.200 195.400 C 62.980 195.536,62.800 195.997,62.800 196.424 C 62.800 196.851,62.620 197.200,62.400 197.200 C 62.180 197.200,62.000 197.740,62.000 198.400 C 62.000 199.060,61.820 199.600,61.600 199.600 C 61.380 199.600,61.200 200.140,61.200 200.800 C 61.200 201.460,61.020 202.000,60.800 202.000 C 60.580 202.000,60.400 202.450,60.400 203.000 C 60.400 203.550,60.220 204.000,60.000 204.000 C 59.780 204.000,59.600 204.270,59.600 204.600 C 59.600 204.930,59.420 205.200,59.200 205.200 C 58.980 205.200,58.800 205.920,58.800 206.800 C 58.800 207.680,58.620 208.400,58.400 208.400 C 58.180 208.400,58.000 208.940,58.000 209.600 C 58.000 210.479,57.812 210.798,57.300 210.794 C 56.702 210.789,56.687 210.731,57.200 210.400 C 57.698 210.078,57.664 210.010,57.000 210.000 C 56.395 209.991,56.333 209.904,56.745 209.642 C 57.085 209.427,57.129 209.241,56.861 209.148 C 56.604 209.060,56.406 207.519,56.367 205.307 C 56.331 203.276,56.143 201.711,55.951 201.831 C 55.758 201.950,55.600 200.522,55.600 198.657 C 55.600 196.792,55.429 195.207,55.220 195.133 C 55.011 195.060,54.808 193.339,54.768 191.309 C 54.728 189.279,54.539 187.714,54.348 187.832 C 54.156 187.951,54.000 186.957,54.000 185.624 C 54.000 184.275,53.823 183.200,53.600 183.200 C 53.380 183.200,53.200 183.007,53.200 182.771 C 53.200 181.422,52.103 181.200,45.429 181.200 C 41.276 181.200,38.800 181.349,38.800 181.600 M89.200 195.976 C 89.200 197.063,89.380 198.064,89.600 198.200 C 89.820 198.336,90.003 199.652,90.006 201.124 C 90.010 202.999,90.128 203.620,90.400 203.200 C 90.678 202.770,90.789 203.188,90.794 204.676 C 90.797 205.818,90.980 206.864,91.200 207.000 C 91.420 207.136,91.600 208.126,91.600 209.200 C 91.600 210.274,91.780 211.264,92.000 211.400 C 92.220 211.536,92.400 212.627,92.400 213.824 C 92.400 215.021,92.580 216.000,92.800 216.000 C 93.020 216.000,93.200 216.990,93.200 218.200 C 93.200 219.410,93.380 220.400,93.600 220.400 C 93.820 220.400,94.000 221.216,94.000 222.213 C 94.000 225.009,95.947 226.800,98.987 226.800 C 100.204 226.800,101.200 226.898,101.200 227.018 C 101.200 227.465,99.217 229.200,98.706 229.200 C 98.415 229.200,97.917 229.560,97.600 230.000 C 97.283 230.440,96.703 230.800,96.312 230.800 C 95.920 230.800,95.600 230.980,95.600 231.200 C 95.600 231.420,95.150 231.600,94.600 231.600 C 94.050 231.600,93.600 231.780,93.600 232.000 C 93.600 232.220,93.060 232.400,92.400 232.400 C 91.740 232.400,91.200 232.580,91.200 232.800 C 91.200 233.020,90.750 233.200,90.200 233.200 C 89.157 233.200,88.707 234.848,89.600 235.400 C 89.820 235.536,90.000 236.547,90.000 237.647 C 90.000 238.879,90.154 239.552,90.400 239.400 C 90.620 239.264,90.800 239.433,90.800 239.776 C 90.800 240.133,91.142 240.400,91.600 240.400 C 92.040 240.400,92.400 240.220,92.400 240.000 C 92.400 239.777,93.475 239.600,94.824 239.600 C 96.337 239.600,97.154 239.450,97.000 239.200 C 96.857 238.969,97.236 238.800,97.896 238.800 C 98.525 238.800,99.282 238.575,99.579 238.300 C 100.012 237.898,100.059 237.904,99.817 238.330 C 99.568 238.768,99.661 238.769,100.358 238.333 C 100.821 238.044,101.200 237.671,101.200 237.504 C 101.200 237.337,101.560 237.200,102.000 237.200 C 102.440 237.200,102.800 237.020,102.800 236.800 C 102.800 236.580,103.120 236.400,103.512 236.400 C 103.903 236.400,104.483 236.040,104.800 235.600 C 105.117 235.160,105.612 234.800,105.899 234.800 C 106.537 234.800,110.000 231.398,110.000 230.771 C 110.000 230.523,110.540 229.817,111.200 229.200 C 111.860 228.583,112.400 227.831,112.400 227.528 C 112.400 227.225,112.760 226.717,113.200 226.400 C 113.640 226.083,114.000 225.503,114.000 225.112 C 114.000 224.720,114.180 224.400,114.400 224.400 C 114.620 224.400,114.800 224.040,114.800 223.600 C 114.800 223.160,114.980 222.800,115.200 222.800 C 115.420 222.800,115.600 222.440,115.600 222.000 C 115.600 221.560,115.780 221.200,116.000 221.200 C 116.220 221.200,116.400 220.840,116.400 220.400 C 116.400 219.960,116.580 219.600,116.800 219.600 C 117.020 219.600,117.200 219.240,117.200 218.800 C 117.200 218.360,117.380 218.000,117.600 218.000 C 117.820 218.000,118.000 217.638,118.000 217.195 C 118.000 216.752,118.157 216.077,118.350 215.695 C 119.956 212.506,120.400 211.395,120.400 210.562 C 120.400 210.033,120.580 209.600,120.800 209.600 C 121.020 209.600,121.200 209.060,121.200 208.400 C 121.200 207.740,121.380 207.200,121.600 207.200 C 121.820 207.200,122.000 206.660,122.000 206.000 C 122.000 205.340,122.180 204.800,122.400 204.800 C 122.620 204.800,122.800 204.170,122.800 203.400 C 122.800 202.630,122.980 202.000,123.200 202.000 C 123.420 202.000,123.600 201.190,123.600 200.200 C 123.600 199.210,123.780 198.400,124.000 198.400 C 124.220 198.400,124.400 197.410,124.400 196.200 L 124.400 194.000 118.800 194.000 L 113.200 194.000 113.200 196.600 C 113.200 198.067,113.026 199.200,112.800 199.200 C 112.580 199.200,112.400 199.909,112.400 200.776 C 112.400 201.643,112.220 202.464,112.000 202.600 C 111.780 202.736,111.600 203.467,111.600 204.224 C 111.600 204.981,111.420 205.600,111.200 205.600 C 110.980 205.600,110.800 206.230,110.800 207.000 C 110.800 207.770,110.620 208.400,110.400 208.400 C 110.180 208.400,110.000 208.940,110.000 209.600 C 110.000 210.260,109.820 210.800,109.600 210.800 C 109.380 210.800,109.200 211.351,109.200 212.024 C 109.200 212.737,109.033 213.144,108.800 213.000 C 108.573 212.860,108.400 213.196,108.400 213.776 C 108.400 214.339,108.220 214.800,108.000 214.800 C 107.780 214.800,107.600 215.149,107.600 215.576 C 107.600 216.003,107.420 216.464,107.200 216.600 C 106.980 216.736,106.800 217.209,106.800 217.652 C 106.800 218.758,105.861 219.600,104.629 219.600 C 103.805 219.600,103.600 219.406,103.600 218.624 C 103.600 218.087,103.420 217.536,103.200 217.400 C 102.980 217.264,102.800 215.813,102.800 214.176 C 102.800 212.459,102.631 211.200,102.400 211.200 C 102.180 211.200,102.000 210.829,102.000 210.376 C 102.000 209.824,102.165 209.652,102.500 209.853 C 102.892 210.088,102.897 210.026,102.524 209.565 C 102.262 209.241,102.007 207.955,101.956 206.706 C 101.906 205.458,101.715 204.529,101.532 204.642 C 101.350 204.755,101.200 203.397,101.200 201.624 C 101.200 199.741,101.034 198.400,100.800 198.400 C 100.580 198.400,100.400 198.029,100.400 197.576 C 100.400 197.034,100.570 196.849,100.900 197.035 C 101.300 197.261,101.300 197.210,100.900 196.779 C 100.625 196.482,100.400 195.736,100.400 195.120 L 100.400 194.000 94.800 194.000 L 89.200 194.000 89.200 195.976 " stroke="none" fill="#a8a7a6" fill-rule="evenodd"></path><path id="path2" d="" stroke="none" fill="#100c078" fill-rule="evenodd"></path><path id="path3" d="" stroke="none" fill="#100c078" fill-rule="evenodd"></path><path id="path4" d="" stroke="none" fill="#100c078" fill-rule="evenodd"></path></g></svg>